<?xml version="1.0" encoding="utf-8"?>
<!-- Generator: Adobe Illustrator 28.0.0, SVG Export Plug-In . SVG Version: 6.00 Build 0)  -->
<svg version="1.1" id="Camada_1" xmlns="http://www.w3.org/2000/svg" xmlns:xlink="http://www.w3.org/1999/xlink" x="0px" y="0px"
	 viewBox="0 0 324 306" style="enable-background:new 0 0 324 306;" xml:space="preserve">
<style type="text/css">
	.st0{fill:#EE6C2B;}
	.st1{fill:#ED9D7A;}
</style>
<g>
	<g>
		<path class="st0" d="M201.87,288.15H113.7c-49.23,0-89.28-40.05-89.28-89.28v-93.98c0-49.23,40.05-89.28,89.28-89.28h82.57
			c49.23,0,89.28,40.05,89.28,89.28v22.63h-22.82v-22.63c0-36.65-29.81-66.46-66.46-66.46H113.7c-36.65,0-66.46,29.81-66.46,66.46
			v93.98c0,36.65,29.81,66.46,66.46,66.46h88.17V288.15z"/>
	</g>
	<g>
		<g>
			<rect x="121.4" y="178.15" class="st1" width="22.82" height="72.88"/>
		</g>
		<g>
			<rect x="155.93" y="139.02" class="st1" width="22.82" height="112.01"/>
		</g>
		<g>
			<rect x="190.45" y="90.69" class="st1" width="22.82" height="160.35"/>
		</g>
		<g>
			<rect x="224.47" y="164.34" class="st1" width="22.82" height="86.69"/>
		</g>
		<g>
			<rect x="261.93" y="140.94" class="st1" width="22.82" height="110.09"/>
		</g>
	</g>
</g>
</svg>
