<?xml version="1.0" encoding="utf-8"?>
<!-- Generator: Adobe Illustrator 28.0.0, SVG Export Plug-In . SVG Version: 6.00 Build 0)  -->
<svg version="1.1" id="Camada_1" xmlns="http://www.w3.org/2000/svg" xmlns:xlink="http://www.w3.org/1999/xlink" x="0px" y="0px"
	 viewBox="0 0 1341 306" style="enable-background:new 0 0 1341 306;" xml:space="preserve">
<style type="text/css">
	.st0{fill:#EE6C2B;}
	.st1{fill:#ED9D7A;}
	.st2{fill:#EF783D;}
</style>
<g>
	<g>
		<path class="st0" d="M201.87,288.15H113.7c-49.23,0-89.28-40.05-89.28-89.28v-93.98c0-49.23,40.05-89.28,89.28-89.28h82.57
			c49.23,0,89.28,40.05,89.28,89.28v22.63h-22.82v-22.63c0-36.65-29.81-66.46-66.46-66.46H113.7c-36.65,0-66.46,29.81-66.46,66.46
			v93.98c0,36.65,29.81,66.46,66.46,66.46h88.17V288.15z"/>
	</g>
	<g>
		<g>
			<rect x="121.4" y="178.15" class="st1" width="22.82" height="72.88"/>
		</g>
		<g>
			<rect x="155.93" y="139.02" class="st1" width="22.82" height="112.01"/>
		</g>
		<g>
			<rect x="190.45" y="90.69" class="st1" width="22.82" height="160.35"/>
		</g>
		<g>
			<rect x="224.47" y="164.34" class="st1" width="22.82" height="86.69"/>
		</g>
		<g>
			<rect x="261.93" y="140.94" class="st1" width="22.82" height="110.09"/>
		</g>
	</g>
</g>
<g>
	<path class="st2" d="M403.15,251.04h-64.58v-85.18h24.41v64.2h40.17V251.04z"/>
	<path class="st2" d="M486.23,176.85c8.86,8.6,13.29,19.13,13.29,31.59c0,12.46-4.43,22.99-13.29,31.59
		c-8.86,8.6-19.73,12.9-32.61,12.9c-12.88,0-23.75-4.3-32.61-12.9c-8.86-8.6-13.29-19.13-13.29-31.59
		c0-12.46,4.43-22.99,13.29-31.59c8.86-8.6,19.73-12.9,32.61-12.9C466.5,163.95,477.37,168.25,486.23,176.85z M468.81,224.53
		c4.03-4.28,6.04-9.64,6.04-16.08c0-6.36-2.01-11.7-6.04-16.02c-4.03-4.32-9.09-6.48-15.19-6.48c-6.1,0-11.17,2.16-15.19,6.48
		c-4.03,4.32-6.04,9.66-6.04,16.02c0,6.44,2.01,11.8,6.04,16.08c4.03,4.28,9.09,6.42,15.19,6.42
		C459.72,230.95,464.78,228.81,468.81,224.53z"/>
	<path class="st2" d="M598.16,200.18c0.34,4.58,0.51,7.37,0.51,8.39c0,13.05-4.22,23.71-12.65,31.97
		c-8.43,8.26-19.26,12.4-32.48,12.4c-13.05,0-24.05-4.3-32.99-12.9c-8.94-8.6-13.41-19.13-13.41-31.59
		c0-12.46,4.47-22.99,13.41-31.59c8.94-8.6,19.9-12.9,32.86-12.9c10.09,0,18.94,2.25,26.57,6.74c7.63,4.49,12.84,10.76,15.64,18.82
		l-24.79,6.23c-3.39-6.53-9.2-9.79-17.42-9.79c-6.27,0-11.44,2.14-15.51,6.42c-4.07,4.28-6.1,9.64-6.1,16.08
		c0,6.44,2.08,11.8,6.23,16.08c4.15,4.28,9.41,6.42,15.76,6.42c9.07,0,15.34-3.56,18.82-10.68h-21.87v-20.09H598.16z"/>
	<path class="st2" d="M684.8,176.85c8.86,8.6,13.29,19.13,13.29,31.59c0,12.46-4.43,22.99-13.29,31.59
		c-8.86,8.6-19.73,12.9-32.61,12.9s-23.75-4.3-32.61-12.9c-8.86-8.6-13.29-19.13-13.29-31.59c0-12.46,4.43-22.99,13.29-31.59
		s19.73-12.9,32.61-12.9S675.95,168.25,684.8,176.85z M667.39,224.53c4.03-4.28,6.04-9.64,6.04-16.08c0-6.36-2.01-11.7-6.04-16.02
		c-4.03-4.32-9.09-6.48-15.19-6.48s-11.17,2.16-15.19,6.48s-6.04,9.66-6.04,16.02c0,6.44,2.01,11.8,6.04,16.08
		c4.03,4.28,9.09,6.42,15.19,6.42S663.36,228.81,667.39,224.53z"/>
	<path class="st2" d="M768.14,170.43c6.44,4.32,10.42,10.42,11.95,18.31l-23.9,4.83c-0.76-3.73-2.37-6.44-4.83-8.14
		c-2.46-1.7-5.13-2.54-8.01-2.54c-2.71,0-4.89,0.61-6.55,1.84c-1.65,1.23-2.48,2.9-2.48,5.02c0,2.88,1.65,4.7,4.96,5.47l17.29,4.07
		c16.19,4.07,24.28,12.5,24.28,25.3c0,6.36-1.84,11.74-5.53,16.15c-3.69,4.41-8.16,7.54-13.41,9.41c-5.25,1.86-11.02,2.8-17.29,2.8
		c-10.51,0-19.32-2.37-26.44-7.12c-7.12-4.75-11.27-11.15-12.46-19.2l24.92-4.7c1.95,7.54,6.78,11.31,14.49,11.31
		c2.97,0,5.38-0.59,7.25-1.78c1.86-1.19,2.8-2.88,2.8-5.09c0-2.88-1.95-4.79-5.85-5.72l-17.67-4.2
		c-15.59-3.64-23.39-11.87-23.39-24.66c0-8.73,3.26-15.55,9.79-20.47c6.53-4.92,14.96-7.37,25.3-7.37
		C753.43,163.95,761.7,166.11,768.14,170.43z"/>
	<path class="st2" d="M865.39,242.77c4.24-2.63,7.08-6.27,8.52-10.93l5.72,1.65c-1.61,5.76-5.09,10.36-10.42,13.79
		c-5.34,3.43-11.4,5.15-18.18,5.15c-8.9,0-16.46-3.01-22.69-9.03c-6.23-6.02-9.34-13.86-9.34-23.52c0-9.49,3.14-17.29,9.41-23.39
		c6.27-6.1,13.81-9.15,22.63-9.15c6.7,0,12.69,1.78,17.99,5.34c5.3,3.56,8.88,8.31,10.74,14.24l-5.85,1.91
		c-1.44-4.92-4.28-8.75-8.52-11.51s-9.03-4.13-14.37-4.13c-7.2,0-13.33,2.5-18.37,7.5c-5.04,5-7.56,11.4-7.56,19.2
		c0,8.05,2.5,14.54,7.5,19.45c5,4.92,11.15,7.37,18.43,7.37C856.36,246.71,861.15,245.4,865.39,242.77z"/>
	<path class="st2" d="M948.15,196.69c6.27,6.14,9.41,13.88,9.41,23.2c0,9.32-3.14,17.08-9.41,23.27
		c-6.27,6.19-14.03,9.28-23.27,9.28c-9.24,0-16.99-3.09-23.27-9.28c-6.27-6.19-9.41-13.94-9.41-23.27c0-9.32,3.14-17.06,9.41-23.2
		c6.27-6.14,14.03-9.22,23.27-9.22C934.12,187.47,941.88,190.54,948.15,196.69z M943.76,239.15c5.13-5.13,7.69-11.55,7.69-19.26
		c0-7.8-2.54-14.24-7.63-19.32c-5.09-5.09-11.4-7.63-18.94-7.63c-7.54,0-13.86,2.54-18.94,7.63c-5.09,5.09-7.63,11.53-7.63,19.32
		c0,7.71,2.56,14.13,7.69,19.26c5.13,5.13,11.42,7.69,18.88,7.69C932.34,246.84,938.64,244.28,943.76,239.15z"/>
	<path class="st2" d="M1025.89,194.72c4.62,4.92,6.93,11.36,6.93,19.32v37h-6.23v-36.11c0-6.53-1.8-11.78-5.4-15.76
		c-3.6-3.98-8.33-5.98-14.18-5.98c-7.54,0-13.56,2.39-18.05,7.18c-4.49,4.79-6.74,11.29-6.74,19.51v31.15h-6.23v-62.17h6.23v13.22
		c5.09-9.83,13.6-14.75,25.55-14.75C1015.23,187.34,1021.27,189.8,1025.89,194.72z"/>
	<path class="st2" d="M1089.39,247.48c-4.32,3.31-8.86,4.96-13.6,4.96c-5.59,0-10.09-1.67-13.48-5.02
		c-3.39-3.35-5.09-7.99-5.09-13.92v-39.28h-13.6v-5.34h13.6V168.4h6.23v20.47h23.27v5.34h-23.27v38.9c0,4.15,1.17,7.44,3.5,9.85
		c2.33,2.42,5.4,3.62,9.22,3.62c3.9,0,7.5-1.4,10.81-4.2L1089.39,247.48z"/>
	<path class="st2" d="M1158.42,251.04h-6.23v-13.09c-2.71,4.58-6.42,8.14-11.12,10.68c-4.7,2.54-9.9,3.81-15.57,3.81
		c-8.81,0-16.27-3.01-22.38-9.03c-6.1-6.02-9.15-13.86-9.15-23.52c0-9.58,3.07-17.4,9.22-23.46c6.14-6.06,13.58-9.09,22.31-9.09
		c5.68,0,10.87,1.29,15.57,3.88c4.7,2.58,8.41,6.17,11.12,10.74v-13.09h6.23V251.04z M1144.44,239.34c5.17-5,7.75-11.48,7.75-19.45
		c0-7.97-2.61-14.45-7.82-19.45c-5.21-5-11.29-7.5-18.24-7.5c-7.29,0-13.45,2.48-18.5,7.44c-5.04,4.96-7.56,11.46-7.56,19.51
		c0,8.14,2.5,14.66,7.5,19.58c5,4.92,11.19,7.37,18.56,7.37C1133.16,246.84,1139.27,244.34,1144.44,239.34z M1126,178.95
		l10.93-17.54h7.12l-12.46,17.54H1126z"/>
	<path class="st2" d="M1238.13,196.43c6.1,6.06,9.15,13.88,9.15,23.46c0,9.66-3.05,17.5-9.15,23.52c-6.1,6.02-13.52,9.03-22.25,9.03
		c-5.68,0-10.89-1.29-15.64-3.88c-4.75-2.58-8.48-6.21-11.19-10.87v13.35h-6.23V159.5h6.23v42.59c2.71-4.66,6.44-8.28,11.19-10.87
		c4.75-2.59,9.96-3.88,15.64-3.88C1224.61,187.34,1232.03,190.37,1238.13,196.43z M1233.68,239.47c5-4.92,7.5-11.44,7.5-19.58
		c0-8.05-2.52-14.56-7.56-19.51c-5.04-4.96-11.21-7.44-18.5-7.44c-6.95,0-13.03,2.5-18.24,7.5c-5.21,5-7.82,11.48-7.82,19.45
		c0,7.97,2.58,14.45,7.75,19.45c5.17,5,11.27,7.5,18.31,7.5C1222.49,246.84,1228.68,244.38,1233.68,239.47z"/>
	<path class="st2" d="M1273.47,166.49c0.93,0.93,1.4,2.08,1.4,3.43c0,1.36-0.47,2.48-1.4,3.37c-0.93,0.89-2.08,1.34-3.43,1.34
		c-1.44,0-2.63-0.45-3.56-1.34c-0.93-0.89-1.4-2.01-1.4-3.37c0-1.36,0.47-2.5,1.4-3.43c0.93-0.93,2.12-1.4,3.56-1.4
		C1271.4,165.09,1272.54,165.56,1273.47,166.49z M1266.99,251.04v-62.17h6.1v62.17H1266.99z"/>
	<path class="st2" d="M1298.77,251.04V159.5h6.23v91.53H1298.77z"/>
</g>
</svg>
