<?xml version="1.0" encoding="utf-8"?>
<!-- Generator: Adobe Illustrator 28.0.0, SVG Export Plug-In . SVG Version: 6.00 Build 0)  -->
<svg version="1.1" id="Camada_1" xmlns="http://www.w3.org/2000/svg" xmlns:xlink="http://www.w3.org/1999/xlink" x="0px" y="0px"
	 viewBox="0 0 1836 306" style="enable-background:new 0 0 1836 306;" xml:space="preserve">
<style type="text/css">
	.st0{fill:#EE6C2B;}
	.st1{fill:#ED9D7A;}
	.st2{fill:#FFFFFF;}
</style>
<g>
	<g>
		<path class="st0" d="M201.87,288.15H113.7c-49.23,0-89.28-40.05-89.28-89.28v-93.98c0-49.23,40.05-89.28,89.28-89.28h82.57
			c49.23,0,89.28,40.05,89.28,89.28v22.63h-22.82v-22.63c0-36.65-29.81-66.46-66.46-66.46H113.7c-36.65,0-66.46,29.81-66.46,66.46
			v93.98c0,36.65,29.81,66.46,66.46,66.46h88.17V288.15z"/>
	</g>
	<g>
		<g>
			<rect x="121.4" y="178.15" class="st1" width="22.82" height="72.88"/>
		</g>
		<g>
			<rect x="155.93" y="139.02" class="st1" width="22.82" height="112.01"/>
		</g>
		<g>
			<rect x="190.45" y="90.69" class="st1" width="22.82" height="160.35"/>
		</g>
		<g>
			<rect x="224.47" y="164.34" class="st1" width="22.82" height="86.69"/>
		</g>
		<g>
			<rect x="261.93" y="140.94" class="st1" width="22.82" height="110.09"/>
		</g>
	</g>
</g>
<g>
	<path class="st2" d="M418.57,258.65h-98.28V129.03h37.15v97.7h61.14V258.65z"/>
	<path class="st2" d="M545,145.76c13.48,13.09,20.22,29.12,20.22,48.08c0,18.96-6.74,34.99-20.22,48.08
		c-13.48,13.09-30.02,19.64-49.62,19.64c-19.61,0-36.15-6.55-49.62-19.64c-13.48-13.09-20.22-29.12-20.22-48.08
		c0-18.96,6.74-34.99,20.22-48.08c13.48-13.09,30.02-19.64,49.62-19.64C514.98,126.13,531.52,132.67,545,145.76z M518.5,218.31
		c6.13-6.51,9.19-14.67,9.19-24.47c0-9.67-3.06-17.8-9.19-24.38c-6.13-6.58-13.83-9.87-23.12-9.87c-9.29,0-16.99,3.29-23.12,9.87
		c-6.13,6.58-9.19,14.7-9.19,24.38c0,9.8,3.06,17.96,9.19,24.47c6.13,6.51,13.83,9.77,23.12,9.77
		C504.66,228.08,512.37,224.83,518.5,218.31z"/>
	<path class="st2" d="M715.35,181.26c0.52,6.96,0.77,11.22,0.77,12.77c0,19.86-6.42,36.08-19.25,48.66
		c-12.83,12.58-29.31,18.86-49.43,18.86c-19.86,0-36.6-6.55-50.2-19.64c-13.61-13.09-20.41-29.12-20.41-48.08
		c0-18.96,6.8-34.99,20.41-48.08c13.61-13.09,30.28-19.64,50.01-19.64c15.35,0,28.83,3.42,40.43,10.25
		c11.61,6.84,19.54,16.38,23.8,28.63l-37.73,9.48c-5.16-9.93-13.99-14.9-26.5-14.9c-9.54,0-17.41,3.26-23.6,9.77
		c-6.19,6.51-9.29,14.67-9.29,24.47c0,9.8,3.16,17.96,9.48,24.47c6.32,6.51,14.32,9.77,23.99,9.77c13.8,0,23.35-5.42,28.63-16.25
		h-33.28v-30.57H715.35z"/>
	<path class="st2" d="M847.19,145.76c13.48,13.09,20.22,29.12,20.22,48.08c0,18.96-6.74,34.99-20.22,48.08s-30.02,19.64-49.62,19.64
		s-36.15-6.55-49.62-19.64s-20.22-29.12-20.22-48.08c0-18.96,6.74-34.99,20.22-48.08s30.02-19.64,49.62-19.64
		S833.72,132.67,847.19,145.76z M820.69,218.31c6.13-6.51,9.19-14.67,9.19-24.47c0-9.67-3.06-17.8-9.19-24.38
		c-6.13-6.58-13.83-9.87-23.12-9.87c-9.29,0-16.99,3.29-23.12,9.87c-6.13,6.58-9.19,14.7-9.19,24.38c0,9.8,3.06,17.96,9.19,24.47
		c6.13,6.51,13.83,9.77,23.12,9.77C806.86,228.08,814.56,224.83,820.69,218.31z"/>
	<path class="st2" d="M974.01,135.99c9.8,6.58,15.86,15.86,18.19,27.86l-36.37,7.35c-1.16-5.68-3.61-9.8-7.35-12.38
		c-3.74-2.58-7.8-3.87-12.19-3.87c-4.13,0-7.45,0.93-9.96,2.8c-2.51,1.87-3.77,4.42-3.77,7.64c0,4.39,2.52,7.16,7.54,8.32
		l26.31,6.19c24.64,6.19,36.95,19.02,36.95,38.5c0,9.67-2.8,17.86-8.42,24.57c-5.61,6.71-12.41,11.48-20.41,14.32
		c-8,2.84-16.77,4.26-26.31,4.26c-15.99,0-29.41-3.61-40.24-10.83c-10.83-7.22-17.15-16.96-18.96-29.21l37.92-7.16
		c2.97,11.48,10.32,17.22,22.05,17.22c4.51,0,8.19-0.9,11.03-2.71c2.84-1.81,4.26-4.39,4.26-7.74c0-4.39-2.97-7.29-8.9-8.71
		l-26.89-6.38c-23.73-5.55-35.6-18.06-35.6-37.53c0-13.28,4.97-23.67,14.9-31.15c9.93-7.48,22.76-11.22,38.5-11.22
		C951.63,126.13,964.21,129.41,974.01,135.99z"/>
	<path class="st2" d="M1122.01,246.07c6.45-4,10.77-9.54,12.96-16.64l8.71,2.51c-2.45,8.77-7.74,15.77-15.86,20.99
		c-8.13,5.22-17.35,7.84-27.67,7.84c-13.54,0-25.05-4.58-34.53-13.74c-9.48-9.16-14.22-21.09-14.22-35.79
		c0-14.44,4.77-26.31,14.32-35.6c9.54-9.29,21.02-13.93,34.44-13.93c10.19,0,19.31,2.71,27.38,8.13
		c8.06,5.42,13.51,12.64,16.35,21.67l-8.9,2.9c-2.19-7.48-6.51-13.32-12.96-17.51c-6.45-4.19-13.74-6.29-21.86-6.29
		c-10.96,0-20.28,3.8-27.96,11.41c-7.67,7.61-11.51,17.35-11.51,29.21c0,12.25,3.81,22.12,11.41,29.6
		c7.61,7.48,16.96,11.22,28.05,11.22C1108.27,252.07,1115.56,250.07,1122.01,246.07z"/>
	<path class="st2" d="M1247.95,175.94c9.54,9.35,14.32,21.12,14.32,35.31c0,14.19-4.77,25.99-14.32,35.4
		c-9.54,9.42-21.35,14.12-35.4,14.12c-14.06,0-25.86-4.71-35.4-14.12c-9.54-9.42-14.32-21.22-14.32-35.4
		c0-14.19,4.77-25.96,14.32-35.31c9.54-9.35,21.35-14.03,35.4-14.03C1226.6,161.92,1238.41,166.59,1247.95,175.94z M1241.28,240.56
		c7.8-7.8,11.71-17.57,11.71-29.31c0-11.87-3.87-21.67-11.61-29.41c-7.74-7.74-17.35-11.61-28.83-11.61s-21.09,3.87-28.83,11.61
		c-7.74,7.74-11.61,17.54-11.61,29.41c0,11.74,3.9,21.51,11.7,29.31c7.8,7.8,17.38,11.71,28.73,11.71S1233.47,248.36,1241.28,240.56
		z"/>
	<path class="st2" d="M1366.25,172.94c7.03,7.48,10.54,17.28,10.54,29.41v56.3h-9.48v-54.94c0-9.93-2.74-17.93-8.22-23.99
		c-5.48-6.06-12.67-9.09-21.57-9.09c-11.48,0-20.64,3.64-27.47,10.93c-6.84,7.29-10.25,17.19-10.25,29.7v47.4h-9.48v-94.6h9.48
		v20.12c7.74-14.96,20.7-22.44,38.89-22.44C1350.04,161.72,1359.22,165.46,1366.25,172.94z"/>
	<path class="st2" d="M1462.89,253.23c-6.58,5.03-13.48,7.54-20.7,7.54c-8.51,0-15.35-2.55-20.51-7.64
		c-5.16-5.09-7.74-12.16-7.74-21.18v-59.78h-20.7v-8.13h20.7V132.9h9.48v31.15h35.4v8.13h-35.4v59.2c0,6.32,1.77,11.32,5.32,14.99
		c3.55,3.68,8.22,5.51,14.03,5.51c5.93,0,11.41-2.13,16.44-6.38L1462.89,253.23z"/>
	<path class="st2" d="M1567.94,258.65h-9.48v-19.93c-4.13,6.96-9.77,12.38-16.93,16.25c-7.16,3.87-15.06,5.8-23.7,5.8
		c-13.41,0-24.76-4.58-34.05-13.74c-9.29-9.16-13.93-21.09-13.93-35.79c0-14.57,4.68-26.47,14.03-35.69
		c9.35-9.22,20.67-13.83,33.95-13.83c8.64,0,16.54,1.97,23.7,5.9c7.16,3.93,12.8,9.38,16.93,16.35v-19.93h9.48V258.65z
		 M1546.66,240.85c7.87-7.61,11.8-17.48,11.8-29.6c0-12.12-3.97-21.99-11.9-29.6c-7.93-7.61-17.19-11.41-27.76-11.41
		c-11.09,0-20.48,3.77-28.15,11.32c-7.67,7.54-11.51,17.44-11.51,29.7c0,12.38,3.81,22.31,11.42,29.79
		c7.61,7.48,17.03,11.22,28.25,11.22C1529.5,252.27,1538.79,248.46,1546.66,240.85z M1518.6,148.95l16.64-26.7h10.83l-18.96,26.7
		H1518.6z"/>
	<path class="st2" d="M1689.24,175.56c9.29,9.22,13.93,21.12,13.93,35.69c0,14.7-4.64,26.63-13.93,35.79
		c-9.29,9.16-20.57,13.74-33.86,13.74c-8.64,0-16.57-1.97-23.8-5.9c-7.22-3.93-12.9-9.45-17.02-16.54v20.31h-9.48v-139.3h9.48v64.81
		c4.13-7.09,9.8-12.61,17.02-16.54c7.22-3.93,15.16-5.9,23.8-5.9C1668.67,161.72,1679.95,166.33,1689.24,175.56z M1682.47,241.04
		c7.61-7.48,11.41-17.41,11.41-29.79c0-12.25-3.84-22.15-11.51-29.7c-7.67-7.55-17.06-11.32-28.15-11.32
		c-10.58,0-19.83,3.8-27.76,11.41c-7.93,7.61-11.9,17.48-11.9,29.6c0,12.12,3.93,21.99,11.8,29.6c7.87,7.61,17.15,11.41,27.86,11.41
		C1665.44,252.27,1674.86,248.53,1682.47,241.04z"/>
	<path class="st2" d="M1743.02,130c1.42,1.42,2.13,3.16,2.13,5.22c0,2.06-0.71,3.77-2.13,5.13c-1.42,1.35-3.16,2.03-5.22,2.03
		c-2.19,0-4-0.68-5.42-2.03c-1.42-1.35-2.13-3.06-2.13-5.13c0-2.06,0.71-3.8,2.13-5.22c1.42-1.42,3.22-2.13,5.42-2.13
		C1739.86,127.87,1741.6,128.58,1743.02,130z M1733.15,258.65v-94.6h9.29v94.6H1733.15z"/>
	<path class="st2" d="M1781.52,258.65v-139.3h9.48v139.3H1781.52z"/>
</g>
</svg>
